<svg width="46" height="45" viewBox="0 0 46 45" fill="none" xmlns="http://www.w3.org/2000/svg">
<path opacity="0.7" d="M45.9469 41.8047C39.519 16.3242 24.3493 8.22086 19.8091 6.34016C19.7526 4.64137 19.0324 3.03078 17.8006 1.84831C16.5688 0.66583 14.9216 0.00396511 13.2068 0.00239904H1.93366C1.6845 -0.0102824 1.43534 0.0274088 1.20134 0.113183C0.967344 0.198958 0.753397 0.331025 0.572515 0.501342C0.391635 0.671659 0.247602 0.876669 0.149179 1.1039C0.0507555 1.33113 0 1.57584 0 1.82312C0 2.07041 0.0507555 2.31512 0.149179 2.54235C0.247602 2.76959 0.391635 2.9746 0.572515 3.14491C0.753397 3.31523 0.967344 3.44729 1.20134 3.53306C1.43534 3.61884 1.6845 3.65653 1.93366 3.64385H2.09823C3.49795 3.64385 4.84041 4.19466 5.83062 5.17524C6.82083 6.15583 7.37776 7.48596 7.37905 8.87334V12.3517C7.36831 15.1395 8.03423 17.8889 9.32062 20.368C10.607 22.8472 12.4761 24.9832 14.7703 26.596V40.0296C14.7944 40.4963 14.9985 40.936 15.3404 41.2579C15.6822 41.5797 16.1357 41.7592 16.6072 41.7592C17.0787 41.7592 17.5321 41.5797 17.874 41.2579C18.2158 40.936 18.4199 40.4963 18.4441 40.0296V29.3211C19.2043 30.1997 19.8545 31.1663 20.3802 32.1997C20.3183 32.3773 20.2856 32.5636 20.2834 32.7515V40.0344C20.3076 40.5011 20.5117 40.9408 20.8535 41.2627C21.1953 41.5845 21.6488 41.764 22.1203 41.764C22.5918 41.764 23.0453 41.5845 23.3871 41.2627C23.729 40.9408 23.9331 40.5011 23.9572 40.0344V38.5711C24.8061 38.9521 25.766 39.0133 26.6571 38.743C27.5482 38.4727 28.3092 37.8896 28.7976 37.103L34.4608 43.647C34.8245 44.0713 35.277 44.4121 35.7868 44.6457C36.2967 44.8793 36.8517 45.0002 37.4134 45C37.9395 45.0007 38.4602 44.8952 38.9438 44.6898C39.4273 44.4844 39.8636 44.1836 40.226 43.8055C40.5883 43.4275 40.8692 42.9803 41.0514 42.4911C41.2336 42.0019 41.3133 41.4811 41.2857 40.9603C42.0843 42.1933 42.5054 43.0137 42.52 43.0473C42.7206 43.4509 43.065 43.7664 43.4867 43.9328C43.9084 44.0993 44.3774 44.1049 44.803 43.9486C45.2286 43.7923 45.5806 43.4851 45.791 43.0865C46.0014 42.6878 46.0552 42.226 45.9421 41.7903L45.9469 41.8047ZM37.4957 41.325C37.452 41.3464 37.4023 41.3525 37.3547 41.342C37.3072 41.3315 37.2647 41.3052 37.2343 41.2674L29.7753 32.6651L28.846 29.9544C30.882 30.7363 32.7779 31.8379 34.4608 33.2169L37.6215 41.157C37.6227 41.195 37.6139 41.2326 37.5961 41.2662C37.5783 41.2998 37.5521 41.3283 37.5199 41.3489L37.4957 41.325ZM28.6475 26.0587C22.7229 24.3795 19.9833 19.6106 20.1188 17.4228C20.1672 16.6408 20.5012 16.588 20.7965 16.5401C21.0345 16.5019 21.2627 16.4177 21.4679 16.2922C21.6731 16.1667 21.8514 16.0024 21.9925 15.8086C22.1336 15.6148 22.2349 15.3953 22.2904 15.1627C22.346 14.9302 22.3548 14.689 22.3164 14.4531C22.2779 14.2171 22.1929 13.991 22.0663 13.7876C21.9397 13.5842 21.7739 13.4075 21.5784 13.2676C21.3828 13.1277 21.1614 13.0274 20.9268 12.9723C20.6922 12.9172 20.4489 12.9085 20.2108 12.9466C18.0278 13.2968 16.5902 14.928 16.4499 17.2069C16.232 20.8436 19.2863 25.6317 24.3832 28.2704L26.1983 33.5719L25.5836 35.2703L25.3513 35.1167C23.5797 27.9682 19.1605 24.9792 18.9717 24.8545C18.9083 24.8131 18.8419 24.7762 18.7732 24.7441C18.4054 24.557 18.052 24.3555 17.7035 24.1492C17.6522 24.1113 17.5988 24.0761 17.5438 24.0437C15.5501 22.8018 13.9081 21.0773 12.7725 19.0326C11.6369 16.988 11.0451 14.6904 11.0529 12.3565V8.87814C11.055 6.99528 10.4457 5.16173 9.31519 3.64865H13.1875C13.9604 3.64861 14.7021 3.95097 15.2514 4.49001C15.8006 5.02904 16.1131 5.76118 16.1207 6.52727V7.57797C16.1208 7.96754 16.2469 8.34683 16.4803 8.66024C16.7138 8.97366 17.0423 9.2047 17.4179 9.31952C17.5728 9.3675 30.7192 13.5895 38.8413 32.1758C36.1598 29.6234 32.7473 27.2197 28.6475 26.0587Z" fill="#FFB996"/>
</svg>
