<svg width="20" height="20" viewBox="0 0 20 20" fill="none" xmlns="http://www.w3.org/2000/svg">
<path fill-rule="evenodd" clip-rule="evenodd" d="M9.99994 3.59713C9.99994 6.33176 7.76138 8.54862 4.99997 8.54862C4.08926 8.54862 3.23543 8.3075 2.5 7.88621V12.282C2.5 12.7311 2.12572 13.0951 1.66754 13.0951H2.08718C0.93446 13.0951 0 14.0045 0 15.1253V15.5329C0 15.9811 0.372891 16.3445 0.833912 16.3445H19.1661C19.6266 16.3445 20 15.9843 20 15.5329V15.1253C20 14.004 19.0691 13.0951 17.9128 13.0951H18.3325C17.8727 13.0951 17.5 12.7339 17.5 12.282V7.40835C17.5 3.3707 14.143 0.0975342 10 0.0975342C9.53982 0.0975342 9.08933 0.137912 8.65204 0.215234C9.48812 1.10031 9.99994 2.28953 9.99994 3.59713ZM10 20C11.6108 20 12.9167 18.7271 12.9167 17.1568H7.08333C7.08333 18.7271 8.38917 20 10 20Z" fill="#505857"/>
<path d="M4.72251 6.602C6.56347 6.602 8.05587 5.12409 8.05587 3.301C8.05587 1.47791 6.56347 0 4.72251 0C2.88155 0 1.38916 1.47791 1.38916 3.301C1.38916 5.12409 2.88155 6.602 4.72251 6.602Z" fill="#FF444F"/>
</svg>
