<svg width="159" height="39" viewBox="0 0 159 39" fill="none" xmlns="http://www.w3.org/2000/svg">
<path d="M24.8217 12.6984C25.4647 6.2694 21.3932 1.9433 15.2376 0.828776C8.74143 -0.347596 -0.656122 4.23344 0.88725 13.7724C1.78018 19.2908 5.01667 19.9777 8.70996 24.7042C11.0438 27.6924 11.9429 31.923 16.1723 31.4715C21.2704 30.9282 20.5427 26.6195 22.2159 21.9185C23.5534 18.1603 24.5093 15.8225 24.8217 12.6984Z" fill="#F9ED35"/>
<path d="M21.8495 23.7632C18.867 22.5888 11.925 22.7831 9.19141 25.7728L12.1214 30.0627L13.6555 31.1295L15.1827 31.4948L16.9371 31.2662L19.3842 30.255L20.1476 29.3731L21.2577 26.5115L21.8495 23.7632Z" fill="#E88128"/>
<path d="M11.5461 20.1413C7.5158 19.8281 4.50597 16.3534 4.82381 12.3804" stroke="#FDF5A3" stroke-width="1.7349" stroke-miterlimit="10"/>
<path d="M10.7992 28.2318C10.3972 28.3852 10.198 28.8314 10.3538 29.2272C10.5099 29.6231 10.9615 29.8198 11.3636 29.6661L11.8385 29.4844C12.2403 29.3309 12.4396 28.8849 12.2835 28.489C12.1277 28.0929 11.6756 27.8966 11.274 28.0496L10.7992 28.2318Z" fill="#344A48"/>
<path d="M9.40635 38.4595C9.40101 38.7021 9.61746 38.9027 9.88966 38.9081L11.0299 38.9321C11.3019 38.9377 11.5268 38.7464 11.532 38.5038C11.5371 38.2622 11.3207 38.0614 11.0489 38.0556L9.9086 38.032C9.6365 38.0263 9.41149 38.2179 9.40635 38.4595Z" fill="#344A48"/>
<path d="M20.7444 38.332C20.702 38.5716 20.8856 38.7967 21.1546 38.8341L22.2811 38.9945C22.5499 39.0325 22.8027 38.8697 22.8454 38.6302C22.8874 38.3912 22.7037 38.1667 22.4349 38.1284L21.3085 37.9684C21.0397 37.9298 20.787 38.0931 20.7444 38.332Z" fill="#344A48"/>
<path d="M17.4221 15.6993C17.4737 16.057 17.8096 16.3061 18.173 16.2555C18.5358 16.205 18.7885 15.8734 18.7373 15.5156L18.478 13.7121C18.4266 13.3543 18.0905 13.1049 17.7274 13.1557C17.3642 13.2063 17.1114 13.5377 17.1629 13.8957L17.4221 15.6993Z" fill="#344A48"/>
<path d="M24.4709 12.6679C24.4709 12.6679 24.4769 12.5846 24.4882 12.4231C24.4983 12.2638 24.5101 12.0364 24.5135 11.7297C24.518 11.4252 24.5074 11.0496 24.4664 10.6121C24.4277 10.1745 24.3493 9.67524 24.2169 9.12965C24.0816 8.58502 23.8884 7.99387 23.6067 7.38462C23.3244 6.77614 22.9532 6.15052 22.4786 5.54166C22.0065 4.93136 21.4259 4.34087 20.7388 3.80544C20.0517 3.27038 19.2539 2.79756 18.3691 2.41012C17.4846 2.02221 16.5123 1.72151 15.4803 1.51971C15.4159 1.5064 15.3511 1.49443 15.2861 1.48295L15.0987 1.44953C14.9639 1.42876 14.8197 1.40368 14.699 1.39037C14.4503 1.35572 14.1784 1.33264 13.9142 1.31522C13.3804 1.28573 12.8344 1.28765 12.2826 1.33159C10.079 1.50094 7.76829 2.24278 5.79365 3.59406C4.81128 4.27185 3.91845 5.10617 3.2112 6.08696C2.50355 7.06612 1.98032 8.18601 1.69987 9.38038C1.55644 9.9767 1.477 10.5911 1.44525 11.2113C1.41602 11.8319 1.44457 12.4594 1.51759 13.0854C1.53294 13.2421 1.55945 13.3982 1.58169 13.5545L1.59693 13.6602L1.61849 13.7833L1.66141 14.0297L1.68297 14.1527L1.70715 14.2653L1.75503 14.4906C1.78406 14.6404 1.83097 14.7941 1.86515 14.9465C1.90186 15.0993 1.94837 15.2481 1.98926 15.3994C2.03694 15.5477 2.08394 15.6966 2.13551 15.8435C2.24194 16.1355 2.35177 16.4269 2.48831 16.7058C2.74944 17.2701 3.08825 17.7974 3.46873 18.3067C3.85407 18.814 4.28941 19.2965 4.74505 19.7753C5.19972 20.2545 5.66974 20.7313 6.13907 21.2126C6.60937 21.6927 7.06618 22.1883 7.51629 22.6864C7.62932 22.8103 7.73877 22.9376 7.8485 23.0641C7.96027 23.189 8.06836 23.3168 8.17634 23.4444C8.2855 23.571 8.39144 23.7002 8.49623 23.8298C8.60188 23.9589 8.70773 24.0874 8.80979 24.2188L8.96439 24.4143L9.04228 24.5143L9.11657 24.6118C9.21892 24.7494 9.31768 24.8849 9.41236 25.0221C9.60318 25.2962 9.78264 25.5744 9.95599 25.8532C10.6485 26.9672 11.2327 28.1032 11.9543 29.0865C12.3153 29.5752 12.7118 30.0249 13.1719 30.3716C13.6294 30.7205 14.1475 30.9612 14.696 31.0732C14.9698 31.1306 15.2504 31.157 15.5321 31.1587C15.6728 31.1605 15.814 31.1536 15.9549 31.1443C16.0242 31.1376 16.0985 31.1323 16.1633 31.1246L16.3844 31.0974C16.9421 31.0216 17.4927 30.8818 17.979 30.6584C18.4681 30.4361 18.8914 30.1202 19.2306 29.7336C19.5697 29.3461 19.8267 28.893 20.0299 28.4188C20.2329 27.9434 20.3869 27.4484 20.5208 26.9538C20.6543 26.4585 20.7683 25.9631 20.8803 25.4751C21.1027 24.4984 21.3216 23.551 21.5932 22.6619C21.7262 22.2178 21.8801 21.7841 22.0256 21.3802C22.1719 20.972 22.3138 20.5756 22.4515 20.1915C23.0028 18.6568 23.4677 17.3225 23.7858 16.2118C23.8685 15.9347 23.9362 15.6704 24.0022 15.422C24.0621 15.1727 24.1197 14.9388 24.164 14.7198C24.2581 14.2827 24.3219 13.9079 24.3616 13.6023C24.3819 13.4496 24.3998 13.3148 24.4151 13.1984C24.4274 13.0815 24.4378 12.9833 24.4462 12.9042C24.4629 12.746 24.4715 12.6642 24.4715 12.6642L24.4709 12.6679ZM25.1664 12.7348C25.1644 12.7501 25.1543 12.8326 25.1363 12.9794C25.1262 13.0611 25.1137 13.1625 25.0989 13.283C25.0808 13.4031 25.06 13.5423 25.0364 13.6999C25.0145 13.8576 24.9813 14.0324 24.9469 14.2251C24.9167 14.4185 24.874 14.6278 24.8293 14.8543C24.7359 15.3063 24.6195 15.8241 24.4637 16.3958C24.309 16.9678 24.118 17.5945 23.8922 18.2676C23.6643 18.9401 23.4059 19.6609 23.1292 20.4284C22.991 20.8119 22.8483 21.2077 22.7016 21.6151C22.5527 22.0262 22.4077 22.4325 22.2772 22.8645C22.0126 23.7248 21.7962 24.6514 21.5716 25.6298C21.4584 26.1188 21.3421 26.6212 21.2029 27.1337C21.0631 27.6456 20.9005 28.1688 20.6772 28.6896C20.4534 29.2086 20.1618 29.7277 19.7595 30.1859C19.3581 30.6436 18.8433 31.0236 18.2742 31.2825C17.7031 31.5437 17.097 31.6961 16.4719 31.7817C15.8667 31.8681 15.1988 31.8857 14.5514 31.7493C13.9011 31.618 13.2732 31.3248 12.7441 30.9203C12.2124 30.5161 11.7679 30.0232 11.3779 29.5036C10.599 28.46 10.0022 27.3193 9.31681 26.2426C9.14589 25.9733 8.97071 25.7073 8.78688 25.4485C8.6954 25.3185 8.60052 25.1912 8.50671 25.0674L8.43165 24.9706L8.35775 24.8777L8.20567 24.6895C8.10507 24.5633 8.00242 24.4385 7.89608 24.3164C7.7913 24.193 7.68555 24.0703 7.57659 23.9499C7.36227 23.7061 7.14008 23.4681 6.91119 23.2351C6.00001 22.2965 4.98899 21.4481 3.9774 20.5367C3.4733 20.0796 2.97881 19.5902 2.5156 19.0566C2.05626 18.5199 1.63626 17.9309 1.29638 17.2964L1.16945 17.0583L1.05244 16.8156C0.971349 16.6547 0.906576 16.488 0.8352 16.3232C0.769456 16.157 0.709151 15.9889 0.648457 15.8209C0.595144 15.6516 0.536198 15.483 0.488225 15.3126L0.419277 15.0563C0.396262 14.9712 0.374121 14.8853 0.355573 14.7965L0.296918 14.5327L0.267882 14.4008L0.245061 14.2778L0.199517 14.0319L0.176793 13.909L0.169509 13.8649L0.164654 13.8325L0.155234 13.7674C0.131151 13.5939 0.103183 13.4213 0.0865772 13.2466C0.00820924 12.5503 -0.0207294 11.8462 0.0153956 11.1437C0.0540455 10.4417 0.148145 9.7411 0.315466 9.05775C0.642825 7.68915 1.25355 6.39627 2.06908 5.28011C2.88423 4.16099 3.9 3.22328 5.00133 2.47063C6.10459 1.7174 7.2974 1.14769 8.51264 0.74599C9.72943 0.347835 10.9681 0.106587 12.1886 0.0294256C12.7987 -0.0122184 13.4046 -0.00800626 14 0.0316274C14.3001 0.0551778 14.5879 0.0816957 14.8904 0.127743C15.0461 0.148805 15.1748 0.173887 15.3127 0.197342L15.4264 0.219073L15.5317 0.239943C15.6019 0.253729 15.6717 0.267706 15.7412 0.283215C16.8555 0.520346 17.9112 0.865082 18.8771 1.30785C19.8432 1.74995 20.7197 2.28854 21.4769 2.89856C22.2354 3.50685 22.8728 4.18588 23.3788 4.8877C23.6298 5.24 23.8532 5.59441 24.0433 5.94958C24.232 6.30532 24.3925 6.65829 24.5279 7.0038C24.7993 7.6948 24.9693 8.35392 25.0779 8.95283C25.1854 9.5526 25.2297 10.0928 25.2508 10.5613C25.2711 11.0301 25.2608 11.4281 25.2467 11.7496C25.2318 12.069 25.2096 12.3209 25.1933 12.4841C25.176 12.6452 25.167 12.7282 25.167 12.7282L25.1664 12.7348Z" fill="#344A48"/>
<path d="M21.8525 23.7555C18.9109 22.6639 12.3351 22.9749 9.40625 25.5287" stroke="#344A48" stroke-width="0.397223" stroke-miterlimit="10"/>
<path d="M21.3892 25.7678C18.7225 24.8283 12.9669 24.6322 10.4062 27.5823" stroke="#344A48" stroke-width="0.397223" stroke-miterlimit="10"/>
<path d="M20.7354 28.0851C17.6307 26.857 13.7142 27.234 11.6406 29.4445" stroke="#344A48" stroke-width="0.397223" stroke-miterlimit="10"/>
<path d="M19.5198 30.0566C16.7559 29.0534 14.6285 29.4683 13.3672 30.9695" stroke="#344A48" stroke-width="0.397223" stroke-miterlimit="10"/>
<path d="M8.86931 25.3336C8.86931 25.3336 8.82619 25.3325 8.7454 25.3305C8.72685 25.3306 8.69888 25.3281 8.6815 25.33C8.66382 25.3316 8.6445 25.3333 8.62362 25.3352C8.60226 25.3373 8.58157 25.337 8.55535 25.3406C8.52836 25.345 8.49961 25.3496 8.46931 25.3546C8.3487 25.3767 8.20187 25.4132 8.04144 25.4889C7.88082 25.5626 7.70554 25.6693 7.52958 25.8134C7.35352 25.9569 7.17678 26.1372 7.01315 26.3498C6.84951 26.562 6.69472 26.8032 6.56537 27.0677C6.43563 27.3315 6.32706 27.6172 6.25947 27.9096C6.22665 28.0554 6.20286 28.2027 6.19363 28.346C6.18596 28.4884 6.19363 28.6272 6.22073 28.7449L6.22277 28.7562L6.22393 28.7619L6.22442 28.7646C6.23073 28.7871 6.21645 28.7371 6.2184 28.7437L6.2282 28.774L6.24782 28.8348C6.25151 28.8485 6.25326 28.8462 6.2552 28.8496C6.25724 28.852 6.25889 28.8544 6.26044 28.8569C6.26472 28.8629 6.26277 28.8656 6.27006 28.8752C6.29482 28.912 6.31939 28.9495 6.35891 28.9824C6.43213 29.0508 6.53886 29.1116 6.66326 29.1571C6.91458 29.248 7.21581 29.2873 7.51084 29.2938C7.80683 29.3021 8.10136 29.281 8.38007 29.2472C8.65907 29.2133 8.92321 29.166 9.16559 29.114C9.65085 29.0101 10.0491 28.8873 10.325 28.7965C10.4626 28.7496 10.5706 28.7125 10.6435 28.685C10.7167 28.6584 10.7557 28.644 10.7557 28.644L11.0557 29.4346C11.0557 29.4346 11.0136 29.4493 10.9348 29.477C10.8562 29.5055 10.7398 29.544 10.5916 29.5925C10.294 29.6865 9.86576 29.8131 9.33787 29.9195C9.07402 29.9728 8.78531 30.0211 8.47524 30.0549C8.16526 30.0887 7.83392 30.109 7.48316 30.0952C7.30787 30.0887 7.12793 30.074 6.94274 30.0429C6.75794 30.0121 6.56799 29.9682 6.37494 29.8943C6.18314 29.8202 5.98407 29.7146 5.80859 29.5481C5.72003 29.4677 5.64331 29.3656 5.57941 29.2572C5.54804 29.2016 5.5126 29.1195 5.49327 29.0666L5.47443 29.0055L5.46501 28.9751C5.46608 28.9792 5.45152 28.9264 5.45725 28.9463L5.45618 28.9413L5.45414 28.9313L5.45016 28.9113C5.36227 28.4806 5.41996 28.0952 5.50376 27.7348C5.59194 27.375 5.7244 27.0417 5.88045 26.7337C6.03622 26.4256 6.22053 26.1452 6.41873 25.8945C6.61703 25.6439 6.83427 25.4259 7.05927 25.247C7.28369 25.0677 7.51618 24.9283 7.73807 24.8302C7.9591 24.7299 8.17148 24.6772 8.34705 24.6479C8.39143 24.6415 8.43338 24.6355 8.47281 24.6298C8.51301 24.6248 8.55564 24.6239 8.59264 24.6215C8.63023 24.6198 8.66509 24.6183 8.69694 24.6168C8.72918 24.6156 8.74647 24.618 8.76822 24.6183C8.84901 24.6213 8.89213 24.623 8.89213 24.623L8.86931 25.3336Z" fill="#344A48"/>
<path d="M22.0149 22.7189C22.0149 22.7189 22.0242 22.7278 22.042 22.7449C22.0509 22.7537 22.0621 22.7643 22.0752 22.777C22.0875 22.7883 22.1066 22.8087 22.1164 22.8145C22.1565 22.8478 22.2469 22.9184 22.3708 22.9814C22.4961 23.0451 22.6626 23.1086 22.8733 23.1478C23.0833 23.1872 23.3343 23.2058 23.6148 23.1912C23.895 23.1784 24.2038 23.133 24.5277 23.0589C24.852 22.9848 25.1912 22.8797 25.5358 22.7494C26.2248 22.4871 26.9329 22.1202 27.5944 21.6843C28.257 21.2493 28.8729 20.7459 29.3977 20.2264C29.9232 19.7069 30.3558 19.1713 30.6815 18.6873C31.0091 18.2037 31.2297 17.7728 31.368 17.4666C31.4371 17.3133 31.488 17.1916 31.5198 17.1078C31.5523 17.0241 31.5697 16.9795 31.5697 16.9795L32.4877 17.317C32.4877 17.317 32.4675 17.3671 32.4295 17.4614C32.3923 17.5558 32.3334 17.6925 32.2534 17.8639C32.0936 18.2063 31.8408 18.6846 31.4733 19.2135C31.1074 19.743 30.6275 20.3216 30.0519 20.8771C29.4767 21.4328 28.8077 21.9659 28.089 22.4256C27.3709 22.8861 26.6035 23.2733 25.8437 23.5525C25.4633 23.6912 25.0853 23.8036 24.7167 23.8832C24.3483 23.963 23.9898 24.0122 23.6507 24.0237C23.3122 24.0372 22.9929 24.0121 22.7091 23.955C22.4251 23.8986 22.1779 23.8045 21.9839 23.7022C21.7884 23.598 21.6536 23.4946 21.5491 23.4011C21.5208 23.3773 21.5116 23.366 21.497 23.3521C21.4839 23.3392 21.473 23.3283 21.4642 23.3196C21.4465 23.3021 21.4375 23.2931 21.4375 23.2931L22.0149 22.7189Z" fill="#344A48"/>
<path d="M13.0555 30.7066C13.0555 30.7066 13.0376 30.7337 13.0043 30.7849C12.9875 30.8105 12.9669 30.842 12.9426 30.879C12.9189 30.9157 12.9064 30.9459 12.8838 30.9859C12.8427 31.0556 12.7875 31.1754 12.7295 31.3031C12.7018 31.37 12.6724 31.4412 12.6415 31.5165C12.6131 31.5941 12.5832 31.6757 12.552 31.7609C12.5235 31.8483 12.4938 31.9392 12.4631 32.0335C12.435 32.1295 12.406 32.2288 12.3761 32.3309C12.3199 32.5373 12.2641 32.7569 12.2121 32.987C12.1605 33.2172 12.1105 33.4567 12.0651 33.7021C12.0186 33.9472 11.9765 34.198 11.9373 34.4496C11.7791 35.4561 11.6775 36.4776 11.6159 37.2434C11.5851 37.6265 11.5647 37.9459 11.5519 38.1688C11.5406 38.3891 11.5341 38.5149 11.5341 38.5149L10.2734 38.4494C10.2734 38.4494 10.2837 38.3161 10.3017 38.0831C10.3208 37.8528 10.3503 37.5251 10.3921 37.1326C10.4755 36.3476 10.6065 35.3036 10.7977 34.2617C10.8452 34.0012 10.896 33.7409 10.9514 33.4847C11.0056 33.2286 11.0648 32.9767 11.1262 32.7331C11.1877 32.4895 11.2539 32.2542 11.321 32.0312C11.3566 31.9198 11.3915 31.8114 11.425 31.7066C11.4623 31.6018 11.4981 31.5007 11.5326 31.4035C11.571 31.3064 11.6077 31.2135 11.6428 31.125C11.6818 31.0366 11.7189 30.9529 11.7539 30.8741C11.8312 30.7153 11.8943 30.5846 11.9711 30.4589C12.006 30.4006 12.0402 30.3401 12.0656 30.303C12.0909 30.2667 12.1122 30.2356 12.1296 30.2105C12.1644 30.1602 12.183 30.1333 12.183 30.1333L13.0555 30.7066Z" fill="#344A48"/>
<path d="M19.3718 30.2908C19.3718 30.2908 19.4388 30.4003 19.5563 30.5919C19.5857 30.6398 19.6182 30.6929 19.6536 30.7506C19.6892 30.8075 19.7275 30.8698 19.766 30.9462C19.844 31.0942 19.9318 31.261 20.0278 31.4431C20.1183 31.6249 20.2033 31.8206 20.3001 32.0286C20.3964 32.2362 20.4784 32.4605 20.5737 32.6898C20.6668 32.9197 20.7464 33.1614 20.8361 33.4051C20.9198 33.6502 20.9979 33.9006 21.0781 34.1507C21.1498 34.4025 21.2276 34.6533 21.2928 34.9024C21.3578 35.1515 21.425 35.3961 21.4796 35.6349C21.5079 35.754 21.5358 35.8713 21.5631 35.9859C21.5883 36.101 21.6128 36.2137 21.6367 36.3233C21.6862 36.5424 21.7247 36.7511 21.7638 36.9432C21.8373 37.3284 21.8926 37.6507 21.9274 37.8787C21.9445 37.9935 21.9579 38.0837 21.967 38.1451C21.9758 38.2096 21.9805 38.2441 21.9805 38.2441L20.7252 38.3769C20.7252 38.3769 20.7223 38.3478 20.7168 38.2933C20.7103 38.2359 20.7008 38.1516 20.6885 38.0444C20.6633 37.8286 20.6211 37.5185 20.5637 37.1471C20.5326 36.9618 20.5028 36.7601 20.4626 36.5485C20.4432 36.4424 20.4235 36.3335 20.4032 36.2221C20.3809 36.1113 20.358 35.9979 20.3348 35.8828C20.2905 35.6517 20.2343 35.4159 20.1804 35.175C20.1262 34.9343 20.0603 34.6933 20.0004 34.4501C19.9322 34.21 19.8662 33.9688 19.7951 33.7339C19.7183 33.5016 19.6508 33.2688 19.5709 33.0503C19.4889 32.8331 19.4191 32.6177 19.3363 32.4226C19.2535 32.2281 19.1791 32.0385 19.1039 31.8733C19.0263 31.7118 18.9552 31.5639 18.8922 31.4328C18.8634 31.3678 18.8272 31.304 18.793 31.2449C18.7596 31.186 18.7291 31.1318 18.7015 31.083C18.5907 30.8876 18.5273 30.7759 18.5273 30.7759L19.3718 30.2908Z" fill="#344A48"/>
<path d="M11.4074 17.7161C11.0013 18.3823 11.0385 19.8475 12.0214 20.4399C13.5423 21.4553 15.4632 21.4756 16.9829 20.4427C18.001 19.7458 18.0412 18.1814 17.6282 17.6224C17.2151 17.0638 16.4792 17.124 15.9427 17.3703C15.1413 17.7374 13.9457 17.7678 13.0935 17.3432C12.5227 17.0581 11.8138 17.0501 11.4074 17.7161Z" fill="white" stroke="#344A48" stroke-width="0.397223" stroke-miterlimit="10"/>
<path d="M15.8008 17.4249L16.4553 20.7407" stroke="#344A48" stroke-width="0.397223" stroke-miterlimit="10"/>
<path d="M14.5219 17.8256L14.4961 21.029" stroke="#344A48" stroke-width="0.397223" stroke-miterlimit="10"/>
<path d="M13.2108 17.3964L12.4922 20.7491" stroke="#344A48" stroke-width="0.397223" stroke-miterlimit="10"/>
<path d="M16.2218 9.49058C16.1106 8.81116 16.5078 8.18315 17.1083 8.08751C17.7092 7.99225 18.2865 8.46556 18.3971 9.14488" stroke="#344A48" stroke-width="0.318715" stroke-miterlimit="10"/>
<path d="M7.87369 13.0051C7.67947 12.3441 7.99508 11.673 8.57948 11.5057C9.16409 11.3387 9.7956 11.7388 9.9902 12.3998" stroke="#344A48" stroke-width="0.318715" stroke-miterlimit="10"/>
<path d="M36.9129 2.45632L36.9853 1.55078C36.3439 9.57018 37.035 10.9747 40.493 11.2436C37.035 10.9747 36.1316 12.2238 35.5055 20.054C36.1316 12.2238 35.4538 10.8518 32.0625 10.5881C35.4537 10.8518 36.3336 9.6998 36.9129 2.45632Z" fill="#F9ED35" stroke="#F9ED35" stroke-width="0.59261" stroke-miterlimit="10"/>
<path d="M31.5853 16.9832C31.449 16.3495 31.4059 14.9305 31.7481 14.5931C32.0904 14.2557 32.2562 14.4192 32.3459 14.8318C32.4356 15.2443 32.4288 15.4852 32.3459 15.567C32.263 15.6489 34.8871 14.0892 35.216 14.5931C35.5449 15.0971 33.5251 15.7882 33.4821 15.9368C33.4393 16.0857 34.1549 16.9243 32.4059 17.5579L31.5853 16.9832Z" fill="#344A48"/>
<path d="M9.39844 15.4714C11.4304 15.4714 11.4304 16.1341 11.4304 16.1341C11.4304 16.1341 9.79125 15.9939 9.41631 16.5737" stroke="#344A48" stroke-width="0.395073" stroke-miterlimit="10"/>
<path d="M47.1406 27.3418C47.1406 21.0414 48.2281 12.7998 48.6184 10.0651C48.7445 9.23855 49.2259 8.69702 50.0172 9.55958C50.8085 10.4221 56.2746 16.055 56.2746 16.055" stroke="#282929" stroke-width="2.43005" stroke-miterlimit="10"/>
<path d="M63.9347 27.3418C63.9347 21.0414 62.8488 12.7998 62.4585 10.0651C62.3309 9.23855 61.851 8.69702 61.0597 9.55958C60.2684 10.4221 54.8008 16.0535 54.8008 16.0535" stroke="#282929" stroke-width="2.43005" stroke-miterlimit="10"/>
<path d="M83.793 9.39294H99.892" stroke="#282929" stroke-width="2.43005" stroke-miterlimit="10"/>
<path d="M91.8398 27.3432V9.39294" stroke="#282929" stroke-width="2.43005" stroke-miterlimit="10"/>
<path d="M120.25 27.343V8.96973C125.39 8.96973 129.63 9.32375 129.63 13.5465C129.622 17.8173 125.11 17.8098 120.25 18.7399" stroke="#282929" stroke-width="2.43005" stroke-miterlimit="10"/>
<path d="M132.124 26.8315C129.18 25.2354 126.238 19.6625 126.238 17.8788" stroke="#282929" stroke-width="2.43005" stroke-miterlimit="10"/>
<path d="M69.918 26.8141C69.918 26.8141 75.7546 10.5545 75.9551 9.93491C76.3834 8.63882 77.4207 8.4213 77.9538 9.93491C78.4869 11.4485 83.9925 26.8171 83.9925 26.8171" stroke="#282929" stroke-width="2.43005" stroke-miterlimit="10"/>
<path d="M72.0352 19.3876C73.3049 20.7092 80.6922 20.5877 81.8374 19.3876" stroke="#282929" stroke-width="2.43005" stroke-miterlimit="10"/>
<path d="M72.0134 17.4674L68.4336 27.3426H71.0656L73.3696 20.7466L72.0134 17.4674Z" fill="#282929"/>
<path d="M81.8863 17.4674H79.8633L82.8614 27.3426L85.4797 27.3351L81.8863 17.4674Z" fill="#282929"/>
<path d="M103.633 7.92566V27.343" stroke="#282929" stroke-width="2.43005" stroke-miterlimit="10"/>
<path d="M114.344 7.92566V27.343" stroke="#282929" stroke-width="2.43005" stroke-miterlimit="10"/>
<path d="M103.922 19.6619C105.233 21.0255 112.854 20.8935 114.037 19.6619" stroke="#282929" stroke-width="2.43005" stroke-miterlimit="10"/>
<path d="M144.864 7.59534H141.785L155.869 27.3427H158.973L144.864 7.59534Z" fill="#282929"/>
<path d="M158.995 7.59534H155.908L141.809 27.3427H144.903L158.995 7.59534Z" fill="#282929"/>
<path d="M137.395 16.5352V27.3435" stroke="#282929" stroke-width="2.43005" stroke-miterlimit="10"/>
<path d="M137.395 7.57452C136.606 7.57452 135.835 7.80556 135.179 8.23841C134.523 8.67126 134.012 9.28649 133.71 10.0063C133.408 10.7261 133.329 11.5182 133.483 12.2823C133.637 13.0465 134.017 13.7484 134.574 14.2993C135.132 14.8502 135.843 15.2254 136.616 15.3774C137.39 15.5294 138.192 15.4514 138.921 15.1532C139.65 14.8551 140.272 14.3502 140.711 13.7023C141.149 13.0545 141.383 12.2929 141.383 11.5138C141.383 10.469 140.963 9.46707 140.215 8.72831C139.467 7.98955 138.452 7.57452 137.395 7.57452ZM136.228 13.3964V9.92069L139.354 11.6713L136.228 13.3964Z" fill="#F9ED35"/>
<path d="M48.8056 34.0999L48.6689 33.6784H47.302L47.1653 34.0999H45.8516L47.258 30.4997H48.7084L50.1133 34.0999H48.8056ZM47.9824 31.5663L47.6058 32.7274H48.3651L47.9824 31.5663Z" fill="#F9ED35"/>
<path d="M51.574 32.3008C51.574 31.1878 52.4761 30.4362 53.6699 30.4362C54.6708 30.4362 55.1735 30.9868 55.4013 31.4863L54.408 31.9243C54.3529 31.7735 54.253 31.6427 54.1212 31.549C53.9895 31.4553 53.8322 31.4031 53.6699 31.3993C53.5502 31.3993 53.4317 31.4226 53.3212 31.4678C53.2106 31.513 53.1101 31.5793 53.0255 31.6629C52.9409 31.7465 52.8738 31.8457 52.828 31.9549C52.7822 32.0641 52.7586 32.1811 52.7586 32.2993C52.7586 32.4175 52.7822 32.5346 52.828 32.6438C52.8738 32.753 52.9409 32.8522 53.0255 32.9358C53.1101 33.0194 53.2106 33.0857 53.3212 33.1309C53.4317 33.1761 53.5502 33.1994 53.6699 33.1994C53.832 33.1957 53.9892 33.1438 54.1209 33.0504C54.2526 32.9569 54.3527 32.8264 54.408 32.6759L55.4059 33.1109C55.1826 33.5924 54.6753 34.161 53.6744 34.161C52.4761 34.1655 51.574 33.4079 51.574 32.3008Z" fill="#F9ED35"/>
<path d="M58.0334 34.0993V31.4471H57.0113V30.4945H60.2007V31.4471H59.1831V34.0993H58.0334Z" fill="#F9ED35"/>
<path d="M62.0745 34.1007V30.5005H63.2287V34.1007H62.0745Z" fill="#F9ED35"/>
<path d="M66.2909 34.1007L64.886 30.5005H66.1937L67.0168 32.9277L67.8385 30.5005H69.1477L67.7413 34.1007H66.2909Z" fill="#F9ED35"/>
<path d="M70.8115 34.1007V30.5005H73.6972V31.4531H71.9643V31.8086H73.6608V32.7596H71.9643V33.1542H73.7018V34.1052L70.8115 34.1007Z" fill="#F9ED35"/>
<path d="M79.401 34.0988V31.4466H78.3789V30.4941H81.5683V31.4466H80.5508V34.0988H79.401Z" fill="#F9ED35"/>
<path d="M83.2422 32.3008C83.2422 31.1923 84.1535 30.4362 85.3275 30.4362C86.5015 30.4362 87.4128 31.1863 87.4128 32.3008C87.4128 33.4154 86.5015 34.1655 85.3275 34.1655C84.1535 34.1655 83.2422 33.4079 83.2422 32.3008ZM86.2418 32.3008C86.2418 32.1228 86.1883 31.9488 86.0882 31.8008C85.9881 31.6528 85.8458 31.5374 85.6792 31.4693C85.5127 31.4012 85.3295 31.3834 85.1527 31.4181C84.976 31.4528 84.8136 31.5385 84.6861 31.6644C84.5587 31.7903 84.4719 31.9507 84.4368 32.1253C84.4016 32.2999 84.4196 32.4808 84.4886 32.6453C84.5576 32.8098 84.6744 32.9503 84.8242 33.0492C84.9741 33.1481 85.1503 33.2009 85.3305 33.2009C85.4509 33.2043 85.5707 33.1832 85.6825 33.1391C85.7944 33.095 85.8959 33.0288 85.9808 32.9444C86.0658 32.8601 86.1323 32.7595 86.1764 32.6488C86.2205 32.5382 86.2412 32.4197 86.2372 32.3008H86.2418Z" fill="#F9ED35"/>
<path d="M91.8404 34.0988L90.434 32.2732V34.0988H89.2812V30.4986H90.4689L91.7948 32.2072V30.4941H92.9476V34.0943L91.8404 34.0988Z" fill="#F9ED35"/>
<path d="M101.302 34.1001V31.9414L100.45 34.1076H99.9366L99.0861 31.9414V34.1076H97.9258V30.5073H99.519L100.187 32.2369L100.856 30.5073H102.45V34.1076L101.302 34.1001Z" fill="#F9ED35"/>
<path d="M104.328 32.3008C104.328 31.1923 105.239 30.4362 106.413 30.4362C107.587 30.4362 108.499 31.1863 108.499 32.3008C108.499 33.4154 107.587 34.1655 106.413 34.1655C105.239 34.1655 104.328 33.4079 104.328 32.3008ZM107.328 32.3008C107.328 32.1228 107.274 31.9488 107.174 31.8008C107.074 31.6528 106.932 31.5374 106.765 31.4693C106.599 31.4012 106.415 31.3834 106.239 31.4181C106.062 31.4528 105.9 31.5385 105.772 31.6644C105.645 31.7903 105.558 31.9507 105.523 32.1253C105.488 32.2999 105.506 32.4808 105.575 32.6453C105.644 32.8098 105.76 32.9503 105.91 33.0492C106.06 33.1481 106.236 33.2009 106.416 33.2009C106.537 33.2049 106.657 33.1843 106.77 33.1405C106.882 33.0967 106.984 33.0305 107.07 32.9461C107.155 32.8617 107.222 32.7609 107.267 32.6499C107.311 32.5389 107.332 32.4201 107.328 32.3008Z" fill="#F9ED35"/>
<path d="M110.363 34.1003V30.5H112.066C113.266 30.5 114.157 31.1495 114.157 32.3001C114.157 33.4507 113.266 34.1003 112.072 34.1003H110.363ZM112.986 32.3001C112.986 31.8141 112.682 31.4526 112.075 31.4526H111.521V33.1537H112.069C112.187 33.1611 112.306 33.1444 112.417 33.1045C112.529 33.0646 112.631 33.0025 112.717 32.922C112.803 32.8415 112.871 32.7443 112.918 32.6365C112.964 32.5288 112.987 32.4127 112.986 32.2956V32.3001Z" fill="#F9ED35"/>
<path d="M116.027 34.1003V30.5H118.913V31.4526H117.182V31.8081H118.878V32.7592H117.182V33.1537H118.919V34.1048L116.027 34.1003Z" fill="#F9ED35"/>
<path d="M127.167 34.1006V31.942L126.323 34.1006H125.808L124.956 31.942V34.1081H123.802V30.5079H125.396L126.065 32.2375L126.733 30.5079H128.326V34.1081L127.167 34.1006Z" fill="#F9ED35"/>
<path d="M132.942 34.1007L132.806 33.6792H131.439L131.302 34.1007H129.993L131.399 30.5005H132.85L134.254 34.1007H132.942ZM132.119 31.5671L131.742 32.7281H132.502L132.119 31.5671Z" fill="#F9ED35"/>
<path d="M135.707 32.3008C135.707 31.1878 136.61 30.4362 137.803 30.4362C138.803 30.4362 139.305 30.9868 139.535 31.4863L138.54 31.9243C138.485 31.7735 138.386 31.6426 138.254 31.5489C138.123 31.4551 137.965 31.403 137.803 31.3993C137.684 31.3993 137.565 31.4226 137.455 31.4678C137.344 31.513 137.244 31.5793 137.159 31.6629C137.074 31.7465 137.007 31.8457 136.961 31.9549C136.916 32.0641 136.892 32.1811 136.892 32.2993C136.892 32.4175 136.916 32.5346 136.961 32.6438C137.007 32.753 137.074 32.8522 137.159 32.9358C137.244 33.0194 137.344 33.0857 137.455 33.1309C137.565 33.1761 137.684 33.1994 137.803 33.1994C137.965 33.1956 138.122 33.1436 138.254 33.0502C138.385 32.9568 138.485 32.8263 138.54 32.6759L139.539 33.1109C139.316 33.5924 138.807 34.161 137.808 34.161C136.61 34.1655 135.707 33.4079 135.707 32.3008Z" fill="#F9ED35"/>
<path d="M143.877 34.1007V32.7236H142.51V34.1007H141.356V30.5005H142.51V31.7771H143.877V30.5005H145.031V34.1007H143.877Z" fill="#F9ED35"/>
<path d="M147.101 34.1007V30.5005H148.256V34.1007H147.101Z" fill="#F9ED35"/>
<path d="M152.888 34.0993L151.483 32.2736V34.0993H150.324V30.499H151.513L152.838 32.2076V30.4945H153.992V34.0948L152.888 34.0993Z" fill="#F9ED35"/>
<path d="M156.07 34.1007V30.5005H158.956V31.4531H157.224V31.8086H158.921V32.7596H157.224V33.1542H158.96V34.1052L156.07 34.1007Z" fill="#F9ED35"/>
</svg>
