<svg width="31" height="40" viewBox="0 0 31 40" fill="none" xmlns="http://www.w3.org/2000/svg">
<path d="M19.7162 -7.85897C15.9576 -8.90914 11.939 -8.47708 8.48845 -6.65183C5.03792 -4.82658 2.4184 -1.74722 1.16974 1.95165C-0.0789343 5.65051 0.138387 9.68704 1.77693 13.2294C3.41547 16.7717 6.35037 19.5499 9.97679 20.9914L5.42875 37.3964C5.30986 37.8252 5.36615 38.2837 5.58523 38.6709C5.8043 39.0581 6.16822 39.3423 6.59692 39.4611C7.02563 39.5799 7.48399 39.5234 7.87119 39.3041C8.2584 39.0849 8.54271 38.7208 8.6616 38.2919L13.2096 21.887C16.9146 22.4912 20.7125 21.7041 23.8732 19.677C27.0339 17.6499 29.3342 14.5258 30.3317 10.9056V10.9056C31.4015 7.00871 30.8853 2.8472 28.8961 -0.669088C26.9069 -4.18537 23.6064 -6.77038 19.7162 -7.85897V-7.85897ZM27.0956 10.0082C26.4668 12.2743 25.1805 14.3032 23.3992 15.8385C21.6178 17.3737 19.4215 18.3463 17.088 18.6333C14.7545 18.9203 12.3885 18.5088 10.2893 17.4507C8.19009 16.3927 6.45191 14.7358 5.29456 12.6893C4.13721 10.6429 3.61266 8.299 3.78725 5.95395C3.96185 3.60889 4.82774 1.36803 6.27544 -0.48527C7.72313 -2.33857 9.68762 -3.72107 11.9205 -4.45796C14.1533 -5.19484 16.5542 -5.25302 18.8197 -4.62513C20.3296 -4.21768 21.7435 -3.51419 22.9792 -2.55549C24.2149 -1.5968 25.2477 -0.402021 26.0177 0.959445C26.7877 2.32091 27.2795 3.82192 27.4645 5.37531C27.6495 6.92869 27.5241 8.50348 27.0956 10.0082V10.0082Z" fill="#FFCAB0"/>
</svg>
