<svg width="30" height="31" viewBox="0 0 30 31" fill="none" xmlns="http://www.w3.org/2000/svg">
<rect y="0.247559" width="30" height="30" rx="15" fill="#DEF9F1"/>
<path fill-rule="evenodd" clip-rule="evenodd" d="M21.0454 13.3385H20.7273C20.6406 13.0649 20.5343 12.798 20.4091 12.5398L20.6286 12.3203C21.0008 11.9476 21.0008 11.3439 20.6286 10.9712L19.2795 9.6221C18.9069 9.24989 18.3031 9.24989 17.9305 9.6221L17.7045 9.83847C17.4463 9.7133 17.1794 9.60696 16.9059 9.52029V9.2021C16.9059 8.67492 16.4785 8.24756 15.9514 8.24756H14.0423C13.5151 8.24756 13.0877 8.67492 13.0877 9.2021V9.52029C12.8142 9.60696 12.5473 9.7133 12.2891 9.83847L12.0695 9.61892C11.6969 9.24671 11.0931 9.24671 10.7205 9.61892L9.37136 10.968C8.99915 11.3407 8.99915 11.9444 9.37136 12.3171L9.59091 12.5366C9.46573 12.7948 9.35939 13.0617 9.27273 13.3353H8.95455C8.42736 13.3353 8 13.7626 8 14.2898V16.1989C8 16.7261 8.42736 17.1535 8.95455 17.1535H9.27273C9.35939 17.427 9.46573 17.6939 9.59091 17.9521L9.37136 18.1716C8.99915 18.5443 8.99915 19.1481 9.37136 19.5207L10.7205 20.8698C11.0931 21.242 11.6969 21.242 12.0695 20.8698L12.2955 20.6566C12.5536 20.7818 12.8206 20.8882 13.0941 20.9748V21.293C13.0941 21.8202 13.5215 22.2476 14.0486 22.2476H15.9577C16.4849 22.2476 16.9123 21.8202 16.9123 21.293V20.9748C17.1858 20.8882 17.4527 20.7818 17.7109 20.6566L17.9305 20.8762C18.3031 21.2484 18.9069 21.2484 19.2795 20.8762L20.6286 19.5271C21.0008 19.1544 21.0008 18.5507 20.6286 18.178L20.4091 17.9585C20.5343 17.7003 20.6406 17.4334 20.7273 17.1598H21.0454C21.5726 17.1598 22 16.7325 22 16.2053V14.2962C22.0008 14.0425 21.9006 13.7989 21.7215 13.6192C21.5424 13.4395 21.2992 13.3385 21.0454 13.3385ZM15.0025 12.702C13.5967 12.702 12.457 13.8417 12.457 15.2475C12.457 16.6533 13.5967 17.7929 15.0025 17.7929C16.4083 17.7929 17.5479 16.6533 17.5479 15.2475C17.5479 13.8417 16.4083 12.702 15.0025 12.702ZM15.0016 16.8384C14.1229 16.8384 13.4106 16.1262 13.4106 15.2475C13.4106 14.3689 14.1229 13.6566 15.0016 13.6566C15.8802 13.6566 16.5925 14.3689 16.5925 15.2475C16.5925 16.1262 15.8802 16.8384 15.0016 16.8384Z" fill="#229A87"/>
</svg>
