<svg width="50" height="34" viewBox="0 0 50 34" fill="none" xmlns="http://www.w3.org/2000/svg">
<path fill-rule="evenodd" clip-rule="evenodd" d="M46.016 5.22797C45.7849 5.46104 45.6755 5.57156 45.5253 5.72262L45.275 5.72262C44.9506 6.01998 44.6408 6.31069 44.3237 6.59285C44.0562 6.83099 43.7654 7.04507 43.5119 7.29651C43.2295 7.57677 42.9172 7.82156 42.6444 8.1186C42.3984 8.38683 42.2122 8.74531 41.8784 8.91188C41.4898 9.10474 41.3716 9.52877 41.0447 9.77198C40.7428 9.99651 40.4829 10.2774 40.2054 10.533C40.2114 10.539 40.2518 10.5792 40.3018 10.6295C39.5747 11.4995 38.8226 12.3554 38.3411 13.473C38.3117 13.4841 38.2127 13.5221 38.091 13.5686C38.1413 13.6317 38.1871 13.6893 38.2345 13.7485C37.9291 14.3287 37.6544 14.9386 37.3329 15.507C36.9368 16.2069 36.7089 16.991 36.2014 17.6379C35.9466 17.9629 35.7829 18.3916 35.6915 18.7989C35.6359 19.0484 35.4746 18.999 35.3444 19.0918C35.3953 19.1745 35.4459 19.2574 35.5142 19.3683C35.272 19.8281 35.0229 20.3015 34.7662 20.7892C34.6656 20.6974 34.6049 20.6416 34.5088 20.5539C34.2973 20.7034 33.9569 20.6958 33.869 21.2294C33.7776 20.9678 33.721 20.806 33.6515 20.6068C33.4232 20.8538 33.3334 20.9507 33.2202 21.073C33.2794 21.1702 33.335 21.2611 33.396 21.3611C33.3202 21.4951 33.2335 21.649 33.1498 21.7972C33.0793 21.7861 32.9917 21.7947 32.9765 21.7662C32.8668 21.5534 32.7713 21.3329 32.6721 21.1167C32.2639 21.0416 32.3009 21.4422 32.1283 21.6154C32.0875 21.5746 32.0471 21.5337 31.9905 21.4773C31.889 21.5286 31.7809 21.5831 31.6671 21.6404C31.5219 21.4317 31.3851 21.2351 31.191 20.9558C31.1372 20.241 31.1413 19.412 30.9864 18.6139C30.9067 18.2016 30.9722 17.745 30.8087 17.3998C30.6061 16.971 30.7999 16.5419 30.6513 16.1676C30.4879 15.7547 30.5953 15.323 30.4733 14.9443C30.3393 14.5285 30.4262 14.0975 30.3054 13.7187C30.0178 12.8172 30.0592 11.8389 29.6343 10.976C29.7386 10.5919 29.4041 10.208 29.6343 9.82392C29.3836 9.42617 29.3204 8.97142 29.2293 8.523C29.101 7.88996 28.7684 7.31044 28.7602 6.64067C28.7576 6.4513 28.6097 6.26382 28.4772 5.9576C28.2433 6.76734 28.0422 7.46213 27.7966 8.3121C27.7368 8.36023 27.538 8.51984 27.3372 8.68071C27.4099 8.93247 27.4611 9.10949 27.5155 9.29855C27.2158 10.0763 27.1899 11.0191 26.5447 11.7015C26.8665 11.9643 26.6208 12.3399 26.7097 12.6205C26.2408 13.5414 26.1912 14.5266 25.9285 15.5745C25.9162 15.5856 25.8106 15.6821 25.71 15.774C25.5681 16.1467 25.7597 16.5413 25.5188 16.9213C25.3436 17.1968 25.306 17.6151 25.3424 17.9556C25.3866 18.3711 25.2747 18.7742 25.1176 19.0779C24.9225 19.455 25.0534 19.799 24.9519 20.184C24.8799 20.2502 24.7743 20.3471 24.6279 20.4814C24.7072 21.3374 24.5403 22.2035 24.472 23.1006C24.3617 23.1849 24.2514 23.2688 24.1091 23.3774L24.1091 24.2628C23.9808 24.153 23.9216 24.102 23.7983 23.9959C23.841 24.4389 23.6058 24.6923 23.2764 24.9282C23.1961 24.8823 23.1035 24.8294 23.0248 24.7847C22.5793 25.2192 22.1219 25.6654 21.7046 26.0727C21.4757 26.0071 21.3021 25.9571 21.078 25.8928C21.0479 25.8304 20.9917 25.7132 20.9354 25.5964L20.7334 25.5964C20.703 25.6866 20.6695 25.7861 20.6186 25.9374C20.1096 25.9751 19.7723 25.673 19.4625 25.3304C19.3945 24.9291 19.3945 24.9291 18.895 24.6558C18.9993 24.8421 19.0389 24.9127 19.1002 25.0226C19.0224 25.0425 18.9342 25.0656 18.8116 25.097C18.7825 24.9035 18.7588 24.7445 18.7291 24.5475C18.6437 24.6153 18.5868 24.66 18.5447 24.6932C18.1097 24.3778 17.6738 24.0618 17.1853 23.7074L17.1853 23.3229C17.0845 23.4088 17.0254 23.4588 16.9454 23.5269C16.9112 23.4262 16.8793 23.3312 16.837 23.2058L16.4718 23.2058C16.3599 23.0937 16.279 23.0123 16.1974 22.9306C16.3536 22.7428 16.3842 22.4381 16.6972 22.3922C16.3131 22.1164 16.1468 22.4714 15.8699 22.6975C15.855 22.5265 15.8433 22.3932 15.8313 22.2532C15.4769 22.0385 15.1718 21.7525 14.6847 21.7383C14.2781 21.7266 14.0777 21.3225 13.9123 20.9175C13.8235 20.9833 13.7698 21.0232 13.6629 21.103C13.6326 20.9485 13.606 20.8114 13.5722 20.6366C13.5314 20.6423 13.471 20.6508 13.2915 20.6755C13.0651 20.5143 12.7793 20.2189 12.4312 20.0843C11.9355 19.8927 11.7699 19.3499 11.259 19.1621C10.811 18.9974 10.4124 18.6896 10.0365 18.3473C9.52402 17.8805 8.90091 17.536 8.28349 17.1104L8.28349 17.5841C8.36568 17.6227 8.48392 17.6785 8.64515 17.7548C8.56485 17.8831 8.49435 17.9952 8.41057 18.1294C8.53861 18.3489 8.6521 18.5962 8.8146 18.8055C8.95054 18.981 8.96603 19.2894 9.28502 19.2885C9.19903 19.6156 9.44119 19.7917 9.62866 19.9836C9.5708 20.0412 9.53034 20.0817 9.49873 20.1134C10.1832 20.8183 10.6235 21.6727 11.0051 22.5658C11.2334 22.7836 11.4613 23.0015 11.687 23.2175L11.687 23.5038C11.9592 23.8851 12.196 24.2166 12.4657 24.5938C12.2906 24.6935 12.1663 24.7645 12.006 24.856C12.1467 25.1033 12.2792 25.3358 12.4018 25.5511C12.626 25.496 12.8195 25.4488 13.011 25.4016C13.3534 25.9162 13.6677 26.3884 14.0695 26.9923C13.7353 26.916 13.6471 26.7424 13.4963 26.6205C13.2873 26.9613 13.656 27.0379 13.7584 27.2241C13.6974 27.3087 13.636 27.3923 13.5052 27.5718C13.6664 27.6136 13.8172 27.6529 13.968 27.6922C13.9253 27.7362 13.8826 27.7802 13.8403 27.8242C13.9506 27.7593 14.0609 27.6944 14.1826 27.6231C14.2965 27.8524 14.3904 28.0418 14.4827 28.2286C14.4103 28.3116 14.3553 28.3746 14.2958 28.4424C14.348 28.499 14.403 28.5595 14.4744 28.6374C14.709 28.5934 14.9585 28.5472 15.1858 28.5044C15.5939 29.1989 15.9818 29.8598 16.37 30.5207C16.3463 30.5442 16.3229 30.5679 16.2995 30.591C16.2328 30.5429 16.1661 30.4951 16.0011 30.3763C16.0811 30.8124 16.1471 31.1721 16.224 31.5901C15.8933 31.688 15.5876 31.7782 15.1437 31.909C15.1339 31.9214 15.0283 32.056 14.8943 32.2267C14.3322 31.3583 13.6278 30.6753 12.9832 29.9558C12.0911 28.9598 11.4098 27.8233 10.5904 26.7823C9.7371 25.6987 9.02705 24.501 8.25092 23.3556C7.80928 22.7032 7.34708 22.0642 6.91808 21.4032C6.31615 20.4754 5.69873 19.5545 5.1654 18.588C4.93051 18.162 4.55494 17.846 4.38991 17.3555C4.24828 16.9343 3.88915 16.5856 3.62201 16.2078C2.9401 15.2429 2.28727 14.259 1.49692 13.372C0.981928 12.7947 0.542494 12.149 -9.65717e-07 11.444L-1.0108e-06 10.4126C0.249749 10.4047 0.518784 10.3075 0.792245 10.5824C0.817536 10.3553 0.84093 10.1431 0.86306 9.94267C1.56932 9.52972 2.32995 9.45847 3.21672 9.56867C3.27457 9.64974 3.39028 9.81188 3.60272 10.1086C3.62043 10.1529 3.70863 10.373 3.81422 10.6375C4.08452 10.5399 4.28748 10.4668 4.47875 10.3977C4.78825 10.627 5.11419 10.8357 5.39966 11.0897C5.64309 11.306 6.09928 11.2917 6.03953 11.8323C6.16693 11.7053 6.2074 11.6644 6.28327 11.5888C6.43691 11.989 7.06698 11.8887 7.07457 12.4365C7.22568 12.4546 7.36131 12.4707 7.52191 12.4897C7.53834 12.561 7.55637 12.6392 7.57628 12.726C8.60121 13.1164 9.41052 13.8543 10.278 14.5396C10.3412 14.5396 10.4471 14.5073 10.5104 14.5453C10.7655 14.6992 11.1325 14.8243 11.2258 15.0542C11.3769 15.4279 11.9346 15.4079 11.8973 15.9019C12.1059 15.9139 12.2994 15.925 12.5068 15.9368C12.5419 16.0327 12.5782 16.1325 12.6228 16.2544C12.7237 16.2598 12.8343 16.2655 13.005 16.275C13.1991 16.4799 13.4249 16.718 13.692 16.9998C13.4985 17.0914 13.3844 17.1452 13.226 17.2196C13.4426 17.3647 13.6379 17.4954 13.8336 17.6262C13.9196 17.5727 14.005 17.5192 14.1412 17.4334C14.2231 17.5708 14.2759 17.7193 14.3787 17.8131C14.4684 17.8951 14.6145 17.9154 14.7337 17.9622C14.8067 17.9119 14.8949 17.8508 15.0451 17.7472C15.1295 17.8907 15.2012 18.0135 15.3226 18.22C15.3075 18.2735 15.2578 18.4496 15.2013 18.6497L15.5506 18.6497C15.7074 18.9439 15.8146 19.1507 16.1936 19.2315C16.8379 19.3686 17.4025 19.7717 17.9921 20.0786C18.0825 20.1255 18.1094 20.2946 18.1647 20.406C18.2352 20.3474 18.2937 20.299 18.2877 20.3037C18.57 20.5457 18.8656 20.7344 19.0727 20.9941C19.2836 21.2579 19.4072 21.592 19.6095 21.972C19.7979 22.049 19.8472 21.8672 19.7521 21.3991C19.9939 21.7012 20.0752 21.8026 20.1735 21.9258C20.1194 22.0341 20.0638 22.1455 19.9579 22.3577C20.1966 22.2646 20.3569 22.2022 20.5377 22.1316C20.594 22.174 20.6594 22.2225 20.7656 22.302C20.8409 22.2212 21.0081 22.1189 20.9983 22.0385C20.9502 21.6452 21.1383 21.3485 21.2929 21.06C21.1273 20.4279 21.4757 19.8737 21.5414 19.2869C21.6132 18.6409 21.7194 17.9879 21.9148 17.371C22.1013 16.7801 22.3084 16.1809 22.3634 15.5811C22.4216 14.9443 22.6504 14.3619 22.7519 13.7431C22.8553 13.1123 23.0497 12.4907 23.2631 11.8855C23.4692 11.3025 23.5296 10.6878 23.7465 10.1016C23.9668 9.50597 24.1483 8.87293 24.2643 8.24813C24.3794 7.62871 24.6636 7.08149 24.8116 6.48233C24.9589 5.88539 25.135 5.29447 25.3278 4.71052C25.5279 4.10439 25.7682 3.51157 25.9816 2.90957C26.1868 2.331 26.3803 1.74799 26.5955 1.1178C26.7476 0.965483 26.9484 0.764075 27.1466 0.56552C27.2016 0.614604 27.2645 0.670024 27.3208 0.720374C27.6897 0.746978 27.6862 0.429347 27.783 0.257075C28.1535 0.188674 28.5003 0.124388 28.8752 0.0550372C28.9068 0.0844867 28.9691 0.142119 29.0267 0.195639C29.4775 -0.207807 29.8619 0.0993677 30.1992 0.35493C30.5397 0.613337 30.8166 0.955351 31.1426 1.28184C31.2589 2.11376 31.9323 2.83578 31.6775 3.78487C31.8049 3.81115 31.8836 3.8273 32.0154 3.85422C32.0992 4.3647 32.1874 4.90464 32.2873 5.51583C32.3072 5.52185 32.4052 5.5513 32.478 5.57315C32.6107 6.0526 32.7514 6.51527 32.8627 6.9849C32.9063 7.16952 32.9591 7.41368 32.8769 7.55429C32.6683 7.91181 32.6699 8.21013 32.8769 8.56639C32.9721 8.73011 32.9329 8.97142 33.0723 9.17061L33.0723 8.49324C33.176 8.54232 33.2515 8.56449 33.25 8.57969C33.2089 9.0319 33.3805 9.44897 33.5158 9.85495C33.63 10.197 33.6903 10.5814 33.5509 10.83C33.3701 11.1524 33.5064 11.4304 33.3638 11.8551C33.5411 11.7272 33.5927 11.6901 33.6448 11.6524C33.9733 12.1645 34.0647 12.3782 33.8664 12.7804C33.7077 13.1022 33.8313 13.3701 33.9037 13.6703C33.9297 13.441 33.9556 13.2117 34.0002 12.8175C34.1187 13.3761 34.2019 13.7685 34.3192 14.322C34.9337 12.9568 35.7911 11.9333 36.5268 10.8291C37.276 9.70421 37.7521 9.18106 38.6319 8.48817C38.7916 8.36213 38.8693 8.13571 39.0217 7.99573C39.286 7.75379 39.6006 7.56442 39.8541 7.31266C40.0868 7.08148 40.2332 6.75879 40.4766 6.54281C41.1212 5.97184 41.8578 5.51076 42.468 4.89356C42.5277 4.83307 42.6848 4.86854 42.8094 4.85872C42.885 4.73648 42.9368 4.55946 43.0547 4.47713C43.631 4.07463 44.2023 3.65566 44.8197 3.32537C45.3104 3.06284 45.7792 2.76073 46.2999 2.53304C46.8142 2.30788 47.3441 2.27241 47.8543 2.12737C48.3823 1.97758 48.9501 2.12231 49.5014 2.37913C48.977 2.98842 49.6412 3.56256 49.6045 4.17755C49.6269 3.88811 49.6494 3.59834 49.6718 3.30858C49.7177 3.31143 49.7638 3.3146 49.8097 3.31745L49.8097 3.88905C49.8097 4.06196 49.8068 4.23487 49.8103 4.40746C49.8147 4.60095 49.7572 4.8147 49.9734 4.94423C49.7193 5.05126 50.0177 5.25932 49.9048 5.36731C49.7028 5.56143 50.1305 5.65358 49.9579 5.85689C49.8628 5.96931 49.8343 6.15393 49.8154 6.31069C49.792 6.5045 49.8097 6.70305 49.8097 6.88134C49.6661 6.9317 49.5662 6.96685 49.4082 7.02227C49.5602 7.07483 49.6563 7.10808 49.7904 7.154C49.7983 7.24552 49.8078 7.35351 49.8229 7.53022C49.6576 7.69616 49.4616 7.89281 49.2855 8.06952C49.2937 8.22247 49.2997 8.33299 49.3051 8.43402C49.4271 8.47867 49.5264 8.51509 49.6639 8.56512C49.5182 8.63511 49.4066 8.68863 49.295 8.74246L49.295 8.93183C49.4056 8.98409 49.5239 9.04014 49.6544 9.10157C49.4932 9.59844 49.2624 10.0614 49.2754 10.6042C49.2811 10.85 49.1018 11.1001 48.9959 11.3753C48.9928 11.3709 49.0241 11.4114 49.0718 11.4735C48.9558 11.9083 48.8356 12.3589 48.6874 12.9141C48.5353 12.7269 48.4338 12.6018 48.3393 12.4856C48.3007 12.7611 48.3219 12.9435 48.4304 13.2269C48.4139 13.2488 48.3997 13.2725 48.381 13.2928C48.3415 13.3346 48.3001 13.3745 48.2524 13.422C48.2944 13.4606 48.3371 13.498 48.3776 13.5376C48.3972 13.5569 48.413 13.5803 48.4316 13.6038C48.3576 13.8312 48.283 14.0601 48.185 14.361L47.4269 14.361C47.408 14.3999 47.3893 14.4389 47.3707 14.4781C47.4791 14.5491 47.5878 14.6197 47.7421 14.7207C47.8044 14.6865 47.9144 14.6257 48.124 14.5104C48.0254 14.9101 47.9451 15.2363 47.8667 15.5529C47.7624 15.5761 47.6839 15.5932 47.6024 15.6112C47.897 16.0466 47.6587 16.3668 47.4073 16.6923C47.3273 16.7962 47.266 16.9226 47.2268 17.048C47.1386 17.3292 47.0697 17.6164 46.9777 17.9597C46.9676 17.9625 46.8911 17.985 46.733 18.0319C46.7437 18.1921 46.7567 18.3844 46.7776 18.6899C46.8187 18.6409 46.7494 18.6903 46.7267 18.7555C46.5417 19.2837 46.4197 19.8332 46.1908 20.3468C46.1693 20.3953 46.1867 20.4592 46.1734 20.5127C46.0862 20.8611 45.6388 21.0175 45.6739 21.4264C45.7049 21.7874 45.4198 22.0128 45.3221 22.3188C45.2171 22.6478 45.0815 22.967 44.9538 23.2881C44.9146 23.3872 44.8371 23.474 44.8147 23.575C44.79 23.6846 44.809 23.804 44.809 23.9715C44.7028 24.0519 44.5668 24.1555 44.466 24.2318L44.466 24.8177C44.1034 25.1638 43.7309 25.508 43.772 26.0812C43.7758 26.1322 43.7663 26.2053 43.7335 26.2345C43.1761 26.7272 43.1761 27.5034 42.7797 28.0912C42.3975 28.658 42.2049 29.3496 41.8692 29.9529C41.4247 30.7522 40.923 31.5192 40.4415 32.2976C40.3976 32.3692 40.3321 32.4401 40.2594 32.4794C39.58 32.8474 38.8965 33.208 38.2788 33.5371C37.8549 33.4547 37.5065 33.387 37.0585 33.2999C36.9735 33.1612 36.834 32.9332 36.6984 32.7118C36.8767 32.2495 37.0272 31.7928 37.228 31.3593C37.4296 30.9235 37.6522 30.491 37.9174 30.0919C38.4976 29.2179 38.8675 28.2362 39.3787 27.3292C39.6812 26.7925 39.8241 26.1642 40.2875 25.7192C40.5553 24.704 41.089 23.8059 41.511 22.8581C41.6934 22.4483 41.9394 22.0613 42.0576 21.6161C42.166 21.2056 42.339 20.8126 42.4819 20.4114C42.9295 19.1574 43.3826 17.9059 43.8207 16.6486C44.049 15.9941 44.263 15.3335 44.4606 14.6688C44.6594 13.9993 44.7913 13.2972 45.0154 12.6509C45.4081 11.5181 45.4741 10.3268 45.8213 9.19024C46.0046 8.59014 45.9806 7.92131 46.0097 7.28162C46.0384 6.6584 46.016 6.03265 46.016 5.22797Z" fill="#229A87"/>
</svg>
