<svg width="18" height="10" viewBox="0 0 18 10" fill="none" xmlns="http://www.w3.org/2000/svg">
<path fill-rule="evenodd" clip-rule="evenodd" d="M17.9808 5.14773C18.0423 4.85155 17.9542 4.5441 17.7451 4.32506L13.87 0.304484C13.6423 0.0540756 13.2961 -0.0529644 12.9664 0.0250951C12.6367 0.103155 12.3756 0.353956 12.285 0.679721C12.1943 1.00549 12.2885 1.35464 12.5307 1.59107L14.893 4.06527H0.930039C0.416393 4.06527 0 4.48067 0 4.99309C0 5.50552 0.416393 5.92092 0.930039 5.92092H15.0108L12.4005 8.30852C12.1025 8.51369 11.951 8.87275 12.0121 9.22878C12.0732 9.58481 12.3359 9.87309 12.6854 9.96762C13.0348 10.0622 13.4075 9.94578 13.6406 9.66933L17.6707 5.95803C17.9049 5.75767 18.0215 5.45276 17.9808 5.14773Z" fill="#229A87"/>
</svg>
