<svg width="803" height="112" viewBox="0 0 803 112" fill="none" xmlns="http://www.w3.org/2000/svg">
<path fill-rule="evenodd" clip-rule="evenodd" d="M258.259 51.2564C259.158 51.2404 260.02 51.1249 260.891 50.8496C261.519 50.6503 262.229 50.6052 262.954 50.6662C263.751 50.7338 264.571 50.4871 265.399 50.5541C265.91 50.5958 266.547 50.2426 266.78 51.0585C267.123 51.1048 267.466 51.1511 267.898 51.2092C267.918 51.5734 267.942 51.9263 267.955 52.2783C267.958 52.3533 267.899 52.4906 267.908 52.494C268.646 52.7795 268.451 53.7438 269.127 54.1021C269.495 54.2968 269.734 55.0264 269.498 55.2653C269.023 55.7479 269.216 56.253 269.292 56.8009C268.913 57.5604 268.269 58.0427 267.503 58.4258C266.747 58.8043 266.057 59.3184 265.286 59.661C263.723 60.3569 262.127 60.9837 260.54 61.6268C258.901 62.2908 257.238 62.8823 255.547 63.4119C254.002 63.8958 252.47 64.4199 250.926 64.9072C249.985 65.2041 249.049 65.5172 248.113 65.8306C248.073 65.8439 248.061 65.9343 247.981 66.1097C248.349 66.0991 248.712 65.9828 248.949 66.1082C249.262 66.2726 249.484 66.4574 249.772 66.139C250.134 66.6524 250.75 65.9742 251.121 66.448C251.466 66.2587 251.898 66.2796 252.197 66.3839C252.549 66.5057 252.795 66.6913 253.153 66.4186C253.254 66.3414 253.622 66.4144 253.696 66.5278C254.019 67.024 254.433 66.4513 254.737 66.6682C255.104 66.9308 255.409 66.923 255.701 66.5922C256.231 66.8496 256.79 66.6521 257.335 66.7175C257.804 66.7744 258.341 66.8442 258.742 66.6721C258.999 66.5612 259.14 66.5579 259.364 66.6326C260.095 66.8752 260.847 66.6737 261.595 66.7728C262.348 66.8731 263.127 66.7535 263.896 66.7406C264.862 66.724 265.828 66.7128 266.795 66.707C267.375 66.7034 267.68 67.1466 267.874 67.561C268.021 67.8755 268.001 68.2106 268.476 68.2328C268.54 68.2361 268.594 68.5927 268.681 68.8828C268.405 68.8711 268.164 68.8605 267.923 68.8498C267.917 68.9135 267.91 68.9773 267.904 69.0413C268.103 69.1018 268.303 69.162 268.531 69.2315C268.502 69.2999 268.487 69.4503 268.407 69.5027C268.214 69.6275 268.001 69.7611 267.779 69.7944C266.535 69.9819 265.293 70.2025 264.04 70.2959C261.93 70.4532 259.814 70.5678 257.697 70.6152C256.248 70.6482 254.795 70.6468 253.346 70.6442C252.043 70.6421 250.722 70.5846 249.417 70.5494C247.743 70.5043 246.078 70.402 244.411 70.271C243.352 70.1877 242.295 70.0623 241.237 69.9534C240.538 69.881 240.079 69.3724 239.542 69.0045C239.324 68.5408 239.4 68.0322 238.967 67.5632C238.474 67.0287 238.545 64.7176 238.928 64.0305C239.212 63.5218 239.799 63.2718 240.275 62.9341C241.109 62.3424 242.002 61.8837 243.015 61.6643C243.124 61.6403 243.287 61.5807 243.311 61.5017C243.509 60.8457 244.268 61.1342 244.609 60.7346C245.376 60.8288 246.033 60.464 246.731 60.2697C246.851 60.2364 247.043 60.2805 247.095 60.21C247.774 59.284 248.909 59.3274 249.844 58.9513C250.136 58.8338 250.459 58.7815 250.733 58.636C250.922 58.5364 251.051 58.3285 251.206 58.1689C251.073 58.0421 251.01 57.9342 250.956 57.9378C249.809 58.0131 248.665 58.1675 247.518 58.1701C246.025 58.1729 244.548 58.4134 243.042 58.2777C242.322 58.2132 241.595 58.4167 240.846 58.4001C239.464 58.369 238.078 58.6209 236.701 58.5491C234.334 58.4249 231.978 58.8267 229.614 58.483C228.666 58.8394 227.66 58.4784 226.694 58.6616C226.434 58.7113 226.145 58.6174 225.87 58.6073C225.469 58.5925 225.069 58.5855 224.669 58.5896C223.058 58.6058 221.446 58.6324 219.835 58.6453C219.155 58.6502 218.473 58.6086 217.793 58.6259C215.875 58.6745 213.957 58.5745 212.039 58.5328C211.041 58.5109 210.046 58.6536 209.058 58.3777C207.949 58.7455 206.808 58.4488 205.683 58.4592C204.324 58.4716 202.962 58.4332 201.601 58.4082C199.843 58.3761 198.086 58.339 196.328 58.2967C195.212 58.2694 194.096 58.2339 192.98 58.1929C191.627 58.1431 190.276 58.047 188.92 58.0239C186.86 57.9883 184.799 57.8225 182.739 57.7016C180.167 57.551 177.595 57.4031 175.024 57.2286C173.607 57.1325 172.192 56.9954 170.778 56.8585C169.094 56.6953 167.407 56.545 165.727 56.3281C164.517 56.1715 163.317 55.9456 162.091 55.9023C161.792 55.8915 161.5 55.4921 161.086 55.1834C161.319 55.0986 161.461 55.0093 161.609 54.9997C162.056 54.9705 162.506 54.9724 163.036 54.9601C162.558 54.0873 161.364 54.7018 161.027 53.896C161.352 53.852 161.703 53.8048 162.054 53.7576C162.06 53.6703 162.066 53.5832 162.072 53.4958C161.811 53.3962 161.55 53.2969 161.204 53.1648C161.43 52.761 161.65 52.3665 161.954 51.8244C162.356 51.8157 163.012 51.6266 163.501 51.8357C164.095 52.0897 164.707 51.5981 165.247 52.0798C165.388 52.2053 165.669 51.6165 165.95 52.0191C166.251 52.4514 166.493 51.6431 166.777 52.0105C167.042 52.3534 167.388 51.933 167.469 51.9975C167.977 52.4032 168.494 52.0066 168.999 52.111C169.538 52.2221 170.101 52.2591 170.649 52.2479C171.139 52.2382 171.592 52.2605 172.04 52.5002C172.198 52.5851 172.53 52.6107 172.614 52.5157C172.895 52.1978 173.071 52.4087 173.339 52.5257C173.532 52.6098 173.84 52.4119 174.045 52.4858C174.284 52.5722 174.466 52.7914 174.641 52.4395C175.365 52.9201 176.245 52.0989 176.956 52.7546C177.026 52.8183 177.205 52.8289 177.3 52.7891C178.409 52.3233 179.552 52.6881 180.68 52.6983C182.322 52.7135 183.965 52.7246 185.607 52.7507C186.924 52.7717 188.243 52.7847 189.559 52.8552C190.259 52.8928 191.014 52.5878 191.655 53.1553C191.699 53.1944 191.833 53.1871 191.89 53.1494C193.035 52.3944 194.214 53.3474 195.371 53.1434C195.565 53.1089 195.79 53.1922 195.969 53.1318C197.561 52.592 199.219 53.0345 200.84 52.8884C202.03 52.7812 203.244 52.8939 204.446 52.8864C205.938 52.8776 207.429 52.8412 208.921 52.8278C209.071 52.8265 209.225 52.8945 209.373 52.9415C210.588 53.327 211.828 53.0738 213.055 53.1481C213.326 53.1642 213.647 53.0914 213.868 52.9466C214.373 52.6163 214.973 52.7094 215.377 52.8982C215.807 53.1003 216.154 53.0718 216.556 53.0479C217.349 53.0008 218.164 53.1131 218.903 52.7271C220.188 52.845 221.477 52.7277 222.751 52.687C223.801 52.6531 224.883 52.8278 225.933 52.5112C226.622 52.304 227.369 52.4853 228.047 52.6896C228.33 52.7747 228.577 52.8867 228.859 52.8103C229.163 52.7283 229.465 52.5154 229.756 52.5401C230.075 52.5676 230.322 52.4875 230.614 52.4232C231.437 52.2424 232.293 52.1129 233.073 52.6671C233.135 52.7113 233.219 52.7494 233.292 52.749C233.817 52.7454 234.35 52.7821 234.864 52.7053C235.462 52.6167 236.114 52.7079 236.639 52.3046C236.697 52.2606 236.802 52.2717 236.885 52.2674C237.576 52.2317 238.267 52.1875 238.958 52.1683C239.651 52.1492 240.308 51.9535 241.035 52.0157C241.699 52.0732 242.397 52.0254 243.082 52.0551C243.472 52.0924 243.958 52.2928 244.233 52.1358C245.066 51.6602 246.018 52.339 246.808 51.8203C247.639 52.1684 248.464 51.7119 249.294 51.841C249.526 51.8771 249.803 51.993 249.984 51.9121C250.965 51.4742 252.069 51.9309 253.043 51.514C253.745 51.8309 254.397 51.577 255.086 51.4463C255.603 51.3479 256.175 51.5087 256.722 51.5545C257.144 51.029 257.762 51.4229 258.259 51.2564Z" fill="#F9ED35"/>
<path d="M31.6799 26.4081L26.1439 49.0001H20.5759L16.3519 32.6161L12.0959 49.0001H6.55994L1.02394 26.4081H5.91994L9.37594 43.9121L13.8559 26.4081H18.8159L23.3279 43.9121L26.7839 26.4081H31.6799ZM50.6759 39.4641C50.6759 39.9121 50.6226 40.4241 50.5159 41.0001H37.5239C37.5879 42.5787 38.0146 43.7414 38.8039 44.4881C39.5933 45.2347 40.5746 45.6081 41.7479 45.6081C42.7933 45.6081 43.6573 45.3521 44.3399 44.8401C45.0439 44.3281 45.4919 43.6347 45.6839 42.7601H50.4519C50.2173 43.9974 49.7159 45.1067 48.9479 46.0881C48.1799 47.0694 47.1879 47.8374 45.9719 48.3921C44.7773 48.9467 43.4439 49.2241 41.9719 49.2241C40.2439 49.2241 38.7079 48.8614 37.3639 48.1361C36.0199 47.3894 34.9746 46.3334 34.2279 44.9681C33.4813 43.6027 33.1079 41.9921 33.1079 40.1361C33.1079 38.2801 33.4813 36.6694 34.2279 35.3041C34.9746 33.9174 36.0199 32.8614 37.3639 32.1361C38.7079 31.4107 40.2439 31.0481 41.9719 31.0481C43.7213 31.0481 45.2466 31.4107 46.5479 32.1361C47.8706 32.8614 48.8839 33.8641 49.5879 35.1441C50.3133 36.4027 50.6759 37.8427 50.6759 39.4641ZM46.1319 39.0161C46.1959 37.5654 45.8119 36.4667 44.9799 35.7201C44.1693 34.9734 43.1666 34.6001 41.9719 34.6001C40.7559 34.6001 39.7319 34.9734 38.8999 35.7201C38.0679 36.4667 37.6093 37.5654 37.5239 39.0161H46.1319ZM57.6282 25.3201V49.0001H53.1162V25.3201H57.6282ZM68.9151 31.0481C71.1978 31.0481 73.0965 31.6667 74.6111 32.9041C76.1471 34.1414 77.1071 35.8267 77.4911 37.9601H72.7231C72.5311 37.0214 72.0938 36.2854 71.4111 35.7521C70.7285 35.1974 69.8645 34.9201 68.8191 34.9201C67.6245 34.9201 66.6218 35.3681 65.8111 36.2641C65.0218 37.1387 64.6271 38.4294 64.6271 40.1361C64.6271 41.8427 65.0218 43.1441 65.8111 44.0401C66.6218 44.9147 67.6245 45.3521 68.8191 45.3521C69.8645 45.3521 70.7285 45.0854 71.4111 44.5521C72.0938 43.9974 72.5311 43.2507 72.7231 42.3121H77.4911C77.1071 44.4454 76.1471 46.1307 74.6111 47.3681C73.0965 48.6054 71.1978 49.2241 68.9151 49.2241C67.1871 49.2241 65.6511 48.8614 64.3071 48.1361C62.9631 47.3894 61.9178 46.3334 61.1711 44.9681C60.4245 43.6027 60.0511 41.9921 60.0511 40.1361C60.0511 38.2801 60.4245 36.6694 61.1711 35.3041C61.9178 33.9174 62.9631 32.8614 64.3071 32.1361C65.6511 31.4107 67.1871 31.0481 68.9151 31.0481ZM88.1264 31.0481C89.8544 31.0481 91.401 31.4107 92.7664 32.1361C94.153 32.8614 95.241 33.9174 96.0304 35.3041C96.8197 36.6694 97.2144 38.2801 97.2144 40.1361C97.2144 41.9921 96.8197 43.6027 96.0304 44.9681C95.241 46.3334 94.153 47.3894 92.7664 48.1361C91.401 48.8614 89.8544 49.2241 88.1264 49.2241C86.3984 49.2241 84.841 48.8614 83.4544 48.1361C82.089 47.3894 81.0117 46.3334 80.2224 44.9681C79.433 43.6027 79.0384 41.9921 79.0384 40.1361C79.0384 38.2801 79.433 36.6694 80.2224 35.3041C81.0117 33.9174 82.089 32.8614 83.4544 32.1361C84.841 31.4107 86.3984 31.0481 88.1264 31.0481ZM88.1264 34.9521C86.8677 34.9521 85.801 35.4001 84.9264 36.2961C84.0517 37.1707 83.6144 38.4507 83.6144 40.1361C83.6144 41.8214 84.0517 43.1121 84.9264 44.0081C85.801 44.8827 86.8677 45.3201 88.1264 45.3201C89.385 45.3201 90.4517 44.8827 91.3264 44.0081C92.201 43.1121 92.6384 41.8214 92.6384 40.1361C92.6384 38.4507 92.201 37.1707 91.3264 36.2961C90.4517 35.4001 89.385 34.9521 88.1264 34.9521ZM122.2 31.0161C124.355 31.0161 126.051 31.6881 127.288 33.0321C128.547 34.3547 129.176 36.2427 129.176 38.6961V49.0001H124.696V39.2081C124.696 37.8427 124.344 36.7974 123.64 36.0721C122.958 35.3254 122.008 34.9521 120.792 34.9521C119.534 34.9521 118.531 35.3467 117.784 36.1361C117.038 36.9254 116.664 38.0774 116.664 39.5921V49.0001H112.184V39.2081C112.184 37.8427 111.832 36.7974 111.128 36.0721C110.446 35.3254 109.496 34.9521 108.28 34.9521C107.022 34.9521 106.019 35.3467 105.272 36.1361C104.526 36.9254 104.152 38.0774 104.152 39.5921V49.0001H99.6403V31.2721H104.152V34.6321C104.622 33.4801 105.358 32.5947 106.36 31.9761C107.384 31.3361 108.568 31.0161 109.912 31.0161C111.342 31.0161 112.579 31.3574 113.624 32.0401C114.691 32.7227 115.491 33.7041 116.024 34.9841C116.579 33.7681 117.4 32.8081 118.488 32.1041C119.598 31.3787 120.835 31.0161 122.2 31.0161ZM149.05 39.4641C149.05 39.9121 148.996 40.4241 148.89 41.0001H135.898C135.962 42.5787 136.388 43.7414 137.178 44.4881C137.967 45.2347 138.948 45.6081 140.122 45.6081C141.167 45.6081 142.031 45.3521 142.714 44.8401C143.418 44.3281 143.866 43.6347 144.058 42.7601H148.826C148.591 43.9974 148.09 45.1067 147.322 46.0881C146.554 47.0694 145.562 47.8374 144.346 48.3921C143.151 48.9467 141.818 49.2241 140.346 49.2241C138.618 49.2241 137.082 48.8614 135.738 48.1361C134.394 47.3894 133.348 46.3334 132.602 44.9681C131.855 43.6027 131.482 41.9921 131.482 40.1361C131.482 38.2801 131.855 36.6694 132.602 35.3041C133.348 33.9174 134.394 32.8614 135.738 32.1361C137.082 31.4107 138.618 31.0481 140.346 31.0481C142.095 31.0481 143.62 31.4107 144.922 32.1361C146.244 32.8614 147.258 33.8641 147.962 35.1441C148.687 36.4027 149.05 37.8427 149.05 39.4641ZM144.506 39.0161C144.57 37.5654 144.186 36.4667 143.354 35.7201C142.543 34.9734 141.54 34.6001 140.346 34.6001C139.13 34.6001 138.106 34.9734 137.274 35.7201C136.442 36.4667 135.983 37.5654 135.898 39.0161H144.506ZM154.338 46.0881C154.85 47.2401 155.106 48.4027 155.106 49.5761C155.106 50.8987 154.754 51.9867 154.05 52.8401C153.367 53.6934 152.3 54.1201 150.85 54.1201V52.3921C151.404 52.3921 151.81 52.2534 152.066 51.9761C152.322 51.7201 152.45 51.2507 152.45 50.5681V50.2481H150.402V46.0881H154.338ZM173.985 26.1841C176.801 26.1841 179.137 26.9094 180.993 28.3601C182.849 29.8107 184.075 31.7841 184.673 34.2801H179.937C179.446 33.0641 178.678 32.1041 177.633 31.4001C176.609 30.6961 175.371 30.3441 173.921 30.3441C172.726 30.3441 171.649 30.6427 170.689 31.2401C169.729 31.8374 168.982 32.6907 168.449 33.8001C167.915 34.9094 167.649 36.2107 167.649 37.7041C167.649 39.1761 167.915 40.4667 168.449 41.5761C168.982 42.6854 169.729 43.5387 170.689 44.1361C171.649 44.7334 172.726 45.0321 173.921 45.0321C175.371 45.0321 176.609 44.6801 177.633 43.9761C178.678 43.2721 179.446 42.3121 179.937 41.0961H184.673C184.075 43.5921 182.849 45.5654 180.993 47.0161C179.137 48.4667 176.801 49.1921 173.985 49.1921C171.83 49.1921 169.921 48.7121 168.257 47.7521C166.614 46.7707 165.334 45.4054 164.417 43.6561C163.521 41.9067 163.073 39.9227 163.073 37.7041C163.073 35.4641 163.521 33.4694 164.417 31.7201C165.334 29.9707 166.614 28.6161 168.257 27.6561C169.899 26.6747 171.809 26.1841 173.985 26.1841ZM194.239 31.0481C195.733 31.0481 197.013 31.4001 198.079 32.1041C199.146 32.8081 199.903 33.7574 200.351 34.9521V31.2721H204.831V49.0001H200.351V45.2881C199.903 46.4827 199.146 47.4427 198.079 48.1681C197.013 48.8721 195.733 49.2241 194.239 49.2241C192.746 49.2241 191.402 48.8614 190.207 48.1361C189.013 47.4107 188.074 46.3654 187.391 45.0001C186.73 43.6134 186.399 41.9921 186.399 40.1361C186.399 38.2801 186.73 36.6694 187.391 35.3041C188.074 33.9174 189.013 32.8614 190.207 32.1361C191.402 31.4107 192.746 31.0481 194.239 31.0481ZM195.647 34.9841C194.239 34.9841 193.109 35.4427 192.255 36.3601C191.402 37.2774 190.975 38.5361 190.975 40.1361C190.975 41.7361 191.402 42.9947 192.255 43.9121C193.109 44.8081 194.239 45.2561 195.647 45.2561C197.013 45.2561 198.133 44.7974 199.007 43.8801C199.903 42.9414 200.351 41.6934 200.351 40.1361C200.351 38.5574 199.903 37.3094 199.007 36.3921C198.133 35.4534 197.013 34.9841 195.647 34.9841ZM212.669 25.3201V49.0001H208.157V25.3201H212.669ZM220.5 25.3201V49.0001H215.988V25.3201H220.5ZM223.307 26.1841C223.307 25.4587 223.563 24.8721 224.075 24.4241C224.587 23.9547 225.259 23.7201 226.091 23.7201C226.923 23.7201 227.595 23.9547 228.107 24.4241C228.619 24.8721 228.875 25.4587 228.875 26.1841C228.875 26.8881 228.619 27.4747 228.107 27.9441C227.595 28.3921 226.923 28.6161 226.091 28.6161C225.259 28.6161 224.587 28.3921 224.075 27.9441C223.563 27.4747 223.307 26.8881 223.307 26.1841ZM228.331 31.2721V49.0001H223.819V31.2721H228.331ZM248.322 39.4641C248.322 39.9121 248.269 40.4241 248.162 41.0001H235.17C235.234 42.5787 235.661 43.7414 236.45 44.4881C237.24 45.2347 238.221 45.6081 239.394 45.6081C240.44 45.6081 241.304 45.3521 241.986 44.8401C242.69 44.3281 243.138 43.6347 243.33 42.7601H248.098C247.864 43.9974 247.362 45.1067 246.594 46.0881C245.826 47.0694 244.834 47.8374 243.618 48.3921C242.424 48.9467 241.09 49.2241 239.618 49.2241C237.89 49.2241 236.354 48.8614 235.01 48.1361C233.666 47.3894 232.621 46.3334 231.874 44.9681C231.128 43.6027 230.754 41.9921 230.754 40.1361C230.754 38.2801 231.128 36.6694 231.874 35.3041C232.621 33.9174 233.666 32.8614 235.01 32.1361C236.354 31.4107 237.89 31.0481 239.618 31.0481C241.368 31.0481 242.893 31.4107 244.194 32.1361C245.517 32.8614 246.53 33.8641 247.234 35.1441C247.96 36.4027 248.322 37.8427 248.322 39.4641ZM243.778 39.0161C243.842 37.5654 243.458 36.4667 242.626 35.7201C241.816 34.9734 240.813 34.6001 239.618 34.6001C238.402 34.6001 237.378 34.9734 236.546 35.7201C235.714 36.4667 235.256 37.5654 235.17 39.0161H243.778ZM257.003 25.4801L256.427 41.4801H252.619L252.043 25.4801H257.003ZM256.971 44.2961V49.0001H252.107V44.2961H256.971Z" fill="#229A87"/>
</svg>
